<!-- Generated by IcoMoon.io -->
<svg version="1.1" xmlns="http://www.w3.org/2000/svg" width="1024" height="1024" viewBox="0 0 1024 1024">
<title></title>
<g id="icomoon-ignore">
</g>
<path d="M164.92 76.785h-130.786v-51.2h130.786c46.145 0 85.447 33.541 92.7 79.112l17.072 107.266h637.081c38.994 0 67.533 36.754 57.873 74.531l-52.565 205.571c-14.486 56.658-65.529 96.29-124.010 96.29h-458.472l10.422 65.481c3.297 20.716 21.161 35.963 42.137 35.963h485.424v51.2h-485.424c-46.146 0-85.447-33.543-92.7-79.114l-87.401-549.14c-3.297-20.714-21.161-35.96-42.136-35.96zM326.449 537.156h466.621c35.089 0 65.713-23.781 74.407-57.774l52.562-205.571c1.382-5.397-2.697-10.648-8.267-10.648h-628.932l43.609 273.992z"></path>
<path d="M437.542 946.149c-18.388 0-36.482-16.015-36.482-39.779s18.094-39.776 36.482-39.776c18.384 0 36.482 16.012 36.482 39.776s-18.097 39.779-36.482 39.779zM437.542 997.349c48.425 0 87.682-40.735 87.682-90.979s-39.257-90.976-87.682-90.976c-48.425 0-87.683 40.731-87.683 90.976s39.258 90.979 87.683 90.979z"></path>
<path d="M823.337 946.149c-18.384 0-36.482-16.015-36.482-39.779s18.097-39.776 36.482-39.776c18.384 0 36.482 16.012 36.482 39.776s-18.097 39.779-36.482 39.779zM823.337 997.349c48.425 0 87.682-40.735 87.682-90.979s-39.257-90.976-87.682-90.976c-48.425 0-87.682 40.731-87.682 90.976s39.257 90.979 87.682 90.979z"></path>
</svg>
