<svg width="14" height="14" viewBox="0 0 14 14" fill="none" xmlns="http://www.w3.org/2000/svg">
<path fill-rule="evenodd" clip-rule="evenodd" d="M5.66671 11C2.72119 11 0.333374 8.6122 0.333374 5.66668C0.333374 2.72116 2.72119 0.333344 5.66671 0.333344C8.61223 0.333344 11 2.72116 11 5.66668C11 6.89915 10.582 8.03397 9.87996 8.93709L13.4715 12.5286L12.5287 13.4714L8.93715 9.87991C8.03402 10.582 6.89919 11 5.66671 11ZM9.66671 5.66668C9.66671 7.87582 7.87585 9.66668 5.66671 9.66668C3.45757 9.66668 1.66671 7.87582 1.66671 5.66668C1.66671 3.45754 3.45757 1.66668 5.66671 1.66668C7.87585 1.66668 9.66671 3.45754 9.66671 5.66668Z" fill="black"/>
</svg>
