<svg width="22" height="29" viewBox="0 0 22 29" fill="none" xmlns="http://www.w3.org/2000/svg">
<path d="M9.33872 14.9052C9.36473 14.9052 9.39074 14.9052 9.42196 14.9052C9.43236 14.9052 9.44277 14.9052 9.45317 14.9052C9.46878 14.9052 9.48959 14.9052 9.5052 14.9052C11.0295 14.8766 12.2625 14.2866 13.173 13.1581C15.1759 10.672 14.843 6.41005 14.8065 6.00333C14.6765 2.95011 13.3655 1.48938 12.2833 0.8077C11.4769 0.297875 10.5353 0.0229135 9.48439 0H9.44797C9.44277 0 9.43236 0 9.42716 0H9.39595C8.81847 0 7.68432 0.103111 6.597 0.784787C5.50448 1.46646 4.17264 2.9272 4.04258 6.00333C4.00616 6.41005 3.6732 10.672 5.67616 13.1581C6.5814 14.2866 7.81439 14.8766 9.33872 14.9052ZM5.43164 6.14654C5.43164 6.12936 5.43685 6.11217 5.43685 6.10072C5.60853 1.99347 8.2566 1.55239 9.39074 1.55239H9.41155C9.42196 1.55239 9.43757 1.55239 9.45317 1.55239C10.8578 1.58676 13.2458 2.21688 13.4071 6.10072C13.4071 6.1179 13.4071 6.13509 13.4123 6.14654C13.4175 6.18664 13.7817 10.0819 12.1273 12.1327C11.4717 12.9461 10.5977 13.3471 9.44797 13.3586C9.43757 13.3586 9.43236 13.3586 9.42196 13.3586C9.41155 13.3586 9.40635 13.3586 9.39595 13.3586C8.2514 13.3471 7.37217 12.9461 6.72186 12.1327C5.07267 10.0934 5.42644 6.18091 5.43164 6.14654Z" fill="white"/>
<path d="M21.3682 22.3805C21.3682 22.3748 21.3682 22.3691 21.3682 22.3633C21.3682 22.3175 21.363 22.2717 21.363 22.2201C21.3318 21.0859 21.2641 18.4337 19.0062 17.5859C18.9906 17.5801 18.9698 17.5744 18.9542 17.5687C16.6079 16.9099 14.6569 15.4206 14.6361 15.4034C14.3188 15.157 13.8817 15.243 13.658 15.5924C13.4343 15.9418 13.5124 16.423 13.8297 16.6693C13.9182 16.7381 15.9888 18.3248 18.5796 19.0581C19.7918 19.5335 19.9271 20.9599 19.9635 22.266C19.9635 22.3175 19.9635 22.3633 19.9687 22.4092C19.9739 22.9247 19.9427 23.721 19.8594 24.1792C19.0166 24.7062 15.713 26.5279 10.6874 26.5279C5.68257 26.5279 2.35816 24.7005 1.51015 24.1735C1.42691 23.7152 1.39049 22.919 1.40089 22.4034C1.40089 22.3576 1.4061 22.3118 1.4061 22.2602C1.44251 20.9542 1.57778 19.5278 2.78997 19.0523C5.38082 18.3191 7.45143 16.7266 7.53987 16.6636C7.85722 16.4173 7.93526 15.9361 7.71155 15.5867C7.48784 15.2372 7.05083 15.1513 6.73348 15.3976C6.71267 15.4148 4.77213 16.9042 2.41539 17.563C2.39458 17.5687 2.37897 17.5744 2.36336 17.5801C0.105466 18.4337 0.0378337 21.0859 0.00661858 22.2144C0.00661858 22.266 0.00661846 22.3118 0.00141594 22.3576C0.00141594 22.3633 0.00141594 22.3691 0.00141594 22.3748C-0.00378658 22.6727 -0.00898899 24.2021 0.266745 24.9697C0.31877 25.1187 0.412415 25.2447 0.537276 25.3306C0.693352 25.4452 4.43396 28.0688 10.6926 28.0688C16.9512 28.0688 20.6918 25.4395 20.8479 25.3306C20.9676 25.2447 21.0664 25.1187 21.1185 24.9697C21.3786 24.2079 21.3734 22.6784 21.3682 22.3805Z" fill="white"/>
</svg>
